<?xml version="1.0" encoding="utf-8"?>
<!-- Generator: Adobe Illustrator 22.1.0, SVG Export Plug-In . SVG Version: 6.00 Build 0)  -->
<svg version="1.1" id="Layer_1" xmlns="http://www.w3.org/2000/svg" xmlns:xlink="http://www.w3.org/1999/xlink" x="0px" y="0px"
	 viewBox="0 0 578 43" style="enable-background:new 0 0 578 43;" xml:space="preserve">
<g>
	<path d="M32,0.4v12h-8.5V9.5H11v9.7H0.5v24.4H11h2h8.5h2H32h2h10.5V0.4H32z M11,41.6H2.5V21.2H11V41.6z M21.5,41.6H13V19.2v-7.7
		h8.5v0.8V41.6z M32,41.6h-8.5V14.4H32V41.6z M42.5,41.6H34V12.4v-10h8.5V41.6z"/>
	<g>
		<path d="M69.8,42.9V4.1h7.7c3.4,0,9.4,0.5,14.3,5.4c4.1,4.1,5.6,9.8,5.6,14c0,4.2-1.5,9.8-5.6,13.9c-4.9,4.9-10.9,5.4-14.3,5.4
			H69.8z M72.4,40.5h5.1c10.2,0,17.3-7,17.3-17c0-9.9-7.1-17.1-17.3-17.1h-5.1V40.5z"/>
		<path d="M124.6,30.1H108l-5.2,12.7h-2.8l16.3-39.9l16.1,39.9h-2.8L124.6,30.1z M123.6,27.8l-7.3-18.4L109,27.8H123.6z"/>
		<path d="M143.7,6.4v36.4h-2.6V6.4h-10.1V4.1h22.7v2.3H143.7z"/>
		<path d="M176.9,30.1h-16.5l-5.2,12.7h-2.8l16.3-39.9l16.1,39.9H182L176.9,30.1z M175.9,27.8l-7.3-18.4l-7.4,18.4H175.9z"/>
		<path d="M220.1,6.4H207v14.1h12.8v2.3H207v20.1h-2.6V4.1h15.7V6.4z"/>
		<path d="M264.4,23.6c0,11.2-8.8,19.9-20.1,19.9c-11.4,0-20.1-8.8-20.1-19.9s8.8-20,20.1-20C255.6,3.6,264.4,12.4,264.4,23.6z
			 M261.7,23.6c0-9.9-7.4-17.7-17.4-17.7c-10,0-17.4,7.7-17.4,17.7c0,9.9,7.4,17.6,17.4,17.6C254.3,41.2,261.7,33.5,261.7,23.6z"/>
		<path d="M289,42.9l-12.6-18.3h-1.2v18.3h-2.6V4.1h5.6c3,0,5.6,0.2,8.2,2c3,2.1,4,5.3,4,8.3c0,3.8-1.7,7.8-6.5,9.4
			c-2,0.7-3.9,0.8-4.8,0.8l12.7,18.3H289z M275.3,22.2h3.7c5.5,0,8.8-2.9,8.8-7.9c0-3.9-1.9-5.9-3.4-6.7c-1.6-0.9-4.4-1.2-5.9-1.2
			h-3.2V22.2z"/>
		<path d="M326,4.1c1.7,0,6.3,0.1,9.4,3c1.4,1.3,2.8,3.7,2.8,7.6c0,4.4-1.7,7.1-3.3,8.7c-2.9,2.9-7.1,3.7-12.1,3.7h-2l-1.9,15.8
			h-5.9l4.8-38.8H326z M321.5,21.7h2.2c2.8,0,5.3-0.4,6.9-1.8c1.2-1,2-2.7,2-4.8c0-2-0.8-3.3-1.8-4.1c-1.6-1.3-4.1-1.3-5.3-1.3h-2.5
			L321.5,21.7z"/>
		<path d="M352.6,4.1c3,0,7,0.2,9.8,2.4c1.9,1.4,3.7,4.1,3.7,8.2c0,4-1.6,6.7-3.4,8.4c-1.7,1.6-4.2,2.8-6.6,3.3l10.1,16.6H359
			L349.8,27h-1l-2,15.9h-5.9l4.8-38.8H352.6z M349.4,21.9h1.9c2.1,0,4.9-0.4,6.7-1.9c1.3-1,2.4-2.9,2.4-5c0-2-0.9-3.5-2.2-4.4
			c-1-0.7-2.7-1.1-5.3-1.1h-2L349.4,21.9z"/>
		<path d="M408.1,8.5c4.4,4.4,5,9.8,5,13.1c0,8-3.2,13.1-6.1,16c-5.1,5.2-11.1,6-16,6c-5.3,0-9.7-1.2-13.4-5
			c-3.1-3.1-5.2-7.8-5.2-13.2c0-6.2,2.4-12.1,6.3-15.9c3.8-3.8,9.6-6.1,16.3-6.1C401.8,3.4,405.9,6.2,408.1,8.5z M402.5,34
			c3-2.9,4.7-7.5,4.7-12s-1.9-7.4-3.5-9.1c-2.2-2.2-5.5-4-9.8-4c-3.7,0-7.5,1.1-10.8,4.3c-2.7,2.6-4.8,6.6-4.8,11.9
			c0,4.8,2.1,7.8,3.6,9.4c2.7,2.9,5.9,3.7,9.2,3.7C396.2,38.2,399.9,36.5,402.5,34z"/>
		<path d="M440.9,22.7h16c-0.3,4-1.6,11.2-6.4,15.9c-4.2,4.1-9.2,5.1-13.8,5.1c-4.7,0-9-1.1-12.9-5.2c-2.3-2.4-5.1-6.5-5.1-12.9
			c0-6.2,2.5-12,6.6-16c4-4,9.3-6.1,15.9-6.1c3.5,0,6.4,0.6,9.4,2.4c2.4,1.5,4.5,3.5,6.1,5.6l-4.8,3.5c-1.1-1.5-2.7-3.1-4.2-4.1
			c-2.2-1.4-4.6-2-7.1-2c-5.2,0-8.8,2-11.1,4.4c-3.3,3.3-4.8,7.7-4.8,11.7c0,3.8,1.5,7.5,3.7,9.7c1.5,1.5,4.2,3.5,9,3.5
			c3.2,0,6.1-0.8,8.6-3.1c1.3-1.2,3.1-3.3,3.9-6.9h-9.6L440.9,22.7z"/>
		<path d="M473.5,4.1c3,0,7,0.2,9.8,2.4c1.9,1.4,3.7,4.1,3.7,8.2c0,4-1.6,6.7-3.4,8.4c-1.7,1.6-4.2,2.8-6.6,3.3l10.1,16.6h-7.1
			L470.8,27h-1l-2,15.9h-5.9l4.8-38.8H473.5z M470.4,21.9h1.9c2.1,0,4.9-0.4,6.7-1.9c1.3-1,2.4-2.9,2.4-5c0-2-0.9-3.5-2.2-4.4
			c-1-0.7-2.7-1.1-5.3-1.1h-2L470.4,21.9z"/>
		<path d="M518.4,9.7h-15.5l-1.2,9.8h15l-0.7,5.6h-15l-1.5,12.2H515l-0.7,5.6h-21.4l4.8-38.8h21.4L518.4,9.7z"/>
		<path d="M542.4,12.7c-0.3-1.1-0.9-2.1-1.7-2.7c-1.1-0.8-2.7-1.1-3.8-1.1c-2.3,0-3.7,0.8-4.4,1.5c-0.9,0.8-1.6,2.1-1.6,3.5
			c0,1.3,0.6,2.2,1.4,3c1.2,1.1,2.3,1.4,3.8,2l3.1,1.4c2.5,1.1,4,2.4,4.9,3.5c1.6,1.9,2,4,2,6.3c0,4.5-1.6,7.5-3.5,9.6
			c-3.1,3.3-7.1,3.9-10.1,3.9c-3,0-5.6-0.6-7.8-2.7c-1.9-1.9-3.5-5-3.6-8.7l6-1.3c-0.1,1.5,0.3,3.8,1.3,5.2c0.9,1.2,2.4,2,4.9,2
			c2.1,0,3.5-0.7,4.6-1.6c1.5-1.3,2.2-3.7,2.2-5.7c0-1.6-0.6-2.7-1.5-3.7c-1.1-1.2-2.7-1.9-4-2.4l-3-1.3c-1.4-0.6-3.3-1.6-4.6-3.1
			c-1.2-1.4-2.2-3.4-2.2-5.7c0-0.5,0-4.2,3.1-7.5c2.1-2.2,5.1-3.7,9.2-3.7c1.9,0,4.4,0.3,6.7,1.8c2.1,1.4,3.1,3.2,3.7,4.7
			L542.4,12.7z"/>
		<path d="M572.4,12.7c-0.3-1.1-0.9-2.1-1.7-2.7c-1.1-0.8-2.7-1.1-3.8-1.1c-2.3,0-3.7,0.8-4.4,1.5c-0.9,0.8-1.6,2.1-1.6,3.5
			c0,1.3,0.6,2.2,1.4,3c1.2,1.1,2.3,1.4,3.8,2l3.1,1.4c2.5,1.1,4,2.4,4.9,3.5c1.6,1.9,2,4,2,6.3c0,4.5-1.6,7.5-3.5,9.6
			c-3.1,3.3-7.1,3.9-10.1,3.9c-3,0-5.6-0.6-7.8-2.7c-1.9-1.9-3.5-5-3.6-8.7l6-1.3c-0.1,1.5,0.3,3.8,1.3,5.2c0.9,1.2,2.4,2,4.9,2
			c2.1,0,3.5-0.7,4.6-1.6c1.5-1.3,2.2-3.7,2.2-5.7c0-1.6-0.6-2.7-1.5-3.7c-1.1-1.2-2.7-1.9-4-2.4l-3-1.3c-1.4-0.6-3.3-1.6-4.6-3.1
			c-1.2-1.4-2.2-3.4-2.2-5.7c0-0.5,0-4.2,3.1-7.5c2.1-2.2,5.1-3.7,9.2-3.7c1.9,0,4.4,0.3,6.7,1.8c2.1,1.4,3.1,3.2,3.7,4.7
			L572.4,12.7z"/>
	</g>
</g>
</svg>
